<svg width="24" height="24" viewBox="0 0 24 24" fill="none" xmlns="http://www.w3.org/2000/svg">
<path d="M20.0005 11.0001H7.41448L11.7075 6.70712C12.0975 6.31712 12.0975 5.68412 11.7075 5.29312C11.3175 4.90212 10.6845 4.90312 10.2935 5.29312L4.29348 11.2931C3.90348 11.6831 3.90348 12.3161 4.29348 12.7071L10.2935 18.7071C10.4885 18.9021 10.7435 19.0001 11.0005 19.0001C11.2575 19.0001 11.5125 18.9021 11.7075 18.7071C12.0975 18.3171 12.0975 17.6841 11.7075 17.2931L7.41448 13.0001H20.0005C20.5535 13.0001 21.0005 12.5531 21.0005 12.0001C21.0005 11.4471 20.5535 11.0001 20.0005 11.0001Z" fill="white"/>
</svg>
