<svg width="182" height="133" viewBox="0 0 182 133" fill="none" xmlns="http://www.w3.org/2000/svg">
<g id="Frame" clip-path="url(#clip0_118_1427)">
<path id="Vector" d="M52.3977 74.5825C52.7204 73.5917 53.3012 72.6107 53.3658 71.6038C54.2596 55.5488 55.8732 39.5648 58.0223 23.6324C58.3031 21.5574 58.7065 19.4952 58.9356 17.4137C59.1066 15.8776 59.8198 14.8804 61.3236 14.59C64.002 14.0769 66.6869 13.5605 69.3911 13.212C70.6819 13.0474 71.65 13.8155 71.6145 15.187C71.6151 17.4376 71.463 19.6856 71.1595 21.9156C69.9816 29.3896 68.5585 36.8282 67.4484 44.3151C66.064 53.6738 64.7764 63.0325 63.6889 72.4332C63.0435 77.9193 62.8951 83.4636 62.5079 88.982C62.4562 89.6758 62.2432 90.3632 62.2336 91.057C62.1658 95.107 59.5068 96.9272 56.1281 97.947C53.5142 98.7376 50.8132 99.2378 48.1445 99.8509C45.5855 100.432 43.4653 99.6605 41.8195 97.65C36.7757 91.4765 32.1385 84.9964 28.4597 77.9258C22.3284 66.1661 16.2939 54.3419 10.2917 42.508C7.35186 36.7152 4.52821 30.8612 1.75943 24.9878C0.993123 23.33 0.42658 21.5869 0.0717151 19.7954C-0.115451 18.8789 0.158852 17.7655 0.523504 16.8587C1.70782 13.9155 4.0474 11.8695 6.41279 9.92031C10.2239 6.77708 14.1253 3.74036 18.03 0.697165C19.9114 -0.774409 22.6479 0.200188 23.5159 2.51405C29.3794 18.4335 35.1558 34.3885 41.1967 50.2434C43.8332 57.1656 47.0053 63.8781 49.9645 70.6841C50.5292 71.9749 51.1165 73.2658 51.691 74.5566L52.3977 74.5825Z" fill="currentColor"/>
<path id="Vector_2" d="M115.653 45.1348C117.021 44.4894 118.234 43.844 119.503 43.2889C124.178 41.259 128.861 39.2227 133.569 37.28C134.522 36.913 135.541 36.7535 136.561 36.812C140.243 36.9831 142.143 38.6967 142.782 42.3401C142.947 43.4566 143.031 44.5838 143.031 45.7125C143.157 51.0308 143.353 56.3459 143.331 61.6642C143.331 65.6884 143.124 69.732 142.853 73.7369C142.708 75.9185 141.627 77.6095 139.7 78.881C130.77 84.8204 120.612 88.662 109.986 90.1179C108.018 90.3987 106.136 90.0404 104.542 88.6818C103.313 87.6394 101.996 86.7003 100.792 85.6289C99.5887 84.5575 98.4334 84.2993 97.0297 85.2578C92.0924 88.6205 86.5903 90.7439 80.9592 92.606C77.7322 93.6677 74.7698 92.3607 74.1308 89.0045C73.2531 84.3736 72.6561 79.6684 72.2366 74.9665C71.7428 69.4029 71.5363 63.8102 71.2685 58.2273C71.1684 56.12 71.83 54.3967 73.8792 53.2962C77.474 51.36 80.9979 49.2978 84.5283 47.2583C85.7739 46.5386 86.7226 46.8678 87.0131 48.1651C87.4999 50.195 87.8055 52.2643 87.9263 54.3483C88.2296 61.5448 88.3781 68.7478 88.6201 75.9507C88.6201 76.971 88.7712 77.9857 89.0687 78.9616C89.2268 79.4134 90.1788 80.0395 90.4918 79.9104C93.4413 78.6938 96.7296 77.7999 97.7009 74.1371C98.008 73.0647 98.1634 71.9545 98.1624 70.839C97.7751 56.0587 97.2943 41.2816 96.949 26.5013C96.8619 22.7449 97.0942 18.9756 97.3266 15.2225C97.4363 13.4185 98.2946 12.0244 100.182 11.3209C104.4 9.73957 108.55 7.97111 112.784 6.42531C115.188 5.54753 116.424 6.45758 116.369 9.00702C116.179 17.8236 115.872 26.6336 115.662 35.4469C115.588 38.616 115.653 41.7721 115.653 45.1348ZM130.252 64.8397H129.816C129.816 60.6025 129.89 56.362 129.79 52.1248C129.726 49.4689 128.283 48.5943 125.724 49.5108C122.642 50.6145 119.57 51.7472 116.547 52.9961C116.014 53.2156 115.401 54.0611 115.407 54.6097C115.446 60.7412 115.524 66.8438 115.772 72.956C115.843 74.6341 116.418 76.3219 116.963 77.9387C117.524 79.6135 119.089 80.4139 120.538 79.6749C122.872 78.484 125.25 77.2577 127.27 75.628C128.409 74.7083 129.206 73.0463 129.561 71.5554C130.087 69.3803 130.061 67.0826 130.252 64.8397Z" fill="currentColor"/>
<path id="Vector_3" d="M58.435 132.997C55.3435 132.826 52.8458 130.951 51.4001 128.23C49.4639 124.613 49.1993 120.617 48.3248 116.764C47.7827 114.376 48.6927 113.214 50.958 112.337C62.3752 107.957 74.1409 104.827 86.1324 102.552C100.838 99.7636 115.705 98.4244 130.636 97.6111C143.099 96.9367 155.549 96.7204 167.995 97.9338C169.951 98.1242 171.951 97.837 173.92 97.9661C177.076 98.1694 177.737 99.2376 176.824 102.297C176.153 104.588 174.727 106.047 172.39 106.75C167.024 108.364 161.564 109.229 155.968 109.745C140.708 111.159 125.654 113.992 110.674 117.168C98.8533 119.662 87.1166 122.521 75.7382 126.675C71.3559 128.288 67.1092 130.244 62.7592 131.938C61.4038 132.455 59.9033 132.648 58.435 132.997Z" fill="currentColor"/>
<path id="Vector_4" d="M147.355 62.371C147.355 58.0165 147.355 53.6621 147.355 49.3076C147.355 45.9158 149.614 43.1534 152.841 42.253C159.25 40.4781 165.633 38.5999 172.029 36.7863C173.319 36.4184 174.626 36.0957 175.946 35.8568C178.489 35.3954 180.235 36.8798 180.316 39.4067C180.503 45.3156 180.748 51.2213 180.913 57.1301C180.924 58.3095 180.816 59.487 180.59 60.6445C180.303 62.2581 179.415 63.6296 177.847 64.1943C174.02 65.5497 170.186 66.9471 166.259 67.9411C163.384 68.6704 162.27 69.5772 162.59 72.5139C162.858 74.9665 163.338 77.3966 163.713 79.8395C163.935 81.3046 164.755 81.8048 166.11 81.2627C169.592 79.8685 173.052 78.4099 176.53 77.0093C177.522 76.6041 178.537 76.2603 179.57 75.9799C180.903 75.6216 181.59 76.2735 181.829 77.5676C182.297 80.2364 181.81 82.631 178.502 84.1768C172.216 87.1167 166.014 90.176 159.14 91.525C158.614 91.6283 158.091 91.7638 157.565 91.8477C153.235 92.6738 149.959 90.8989 149.033 86.5842C148.226 82.8311 147.939 78.9327 147.742 75.0827C147.529 70.8487 147.694 66.5953 147.694 62.3517L147.355 62.371ZM162.567 63.1165C164.081 62.4711 165.607 62.0289 166.885 61.1802C167.734 60.6284 168.734 59.5666 168.789 58.6598C169.005 55.0486 168.876 51.4181 168.876 47.7392C167.195 48.1684 165.594 48.5879 163.99 48.9849C162.135 49.4463 161.438 50.2757 161.551 52.17C161.744 55.4391 162.012 58.7018 162.27 61.9676C162.34 62.3588 162.444 62.7432 162.58 63.1165H162.567Z" fill="currentColor"/>
</g>
<defs>
<clipPath id="clip0_118_1427">
<rect width="182" height="133" fill="currentColor"/>
</clipPath>
</defs>
</svg>
