<svg width="18" height="5" viewBox="0 0 18 5" fill="none" xmlns="http://www.w3.org/2000/svg">
<g id="Options">
<path id="Vector" d="M14.7812 0C13.4544 0 12.375 1.08212 12.375 2.40625C12.375 3.73038 13.453 4.8125 14.7812 4.8125C16.1068 4.8125 17.1875 3.73175 17.1875 2.40625C17.1875 1.08075 16.1068 0 14.7812 0ZM14.7812 3.4375C14.212 3.4375 13.75 2.9755 13.75 2.40625C13.75 1.83837 14.2134 1.375 14.7812 1.375C15.3491 1.375 15.8125 1.837 15.8125 2.40625C15.8125 2.97412 15.3505 3.4375 14.7812 3.4375ZM8.59375 0C7.2655 0 6.1875 1.08212 6.1875 2.40625C6.1875 3.73038 7.26688 4.8125 8.59375 4.8125C9.92062 4.8125 11 3.73175 11 2.40625C11 1.08075 9.922 0 8.59375 0ZM8.59375 3.4375C8.0245 3.4375 7.5625 2.9755 7.5625 2.40625C7.5625 1.83837 8.02588 1.375 8.59375 1.375C9.16162 1.375 9.625 1.837 9.625 2.40625C9.625 2.97412 9.163 3.4375 8.59375 3.4375ZM2.40625 0C1.07938 0 0 1.08212 0 2.40625C0 3.73038 1.07938 4.8125 2.40625 4.8125C3.73175 4.8125 4.8125 3.73175 4.8125 2.40625C4.8125 1.08075 3.73038 0 2.40625 0ZM2.40625 3.4375C1.837 3.4375 1.375 2.9755 1.375 2.40625C1.375 1.83837 1.83837 1.375 2.40625 1.375C2.97412 1.375 3.4375 1.837 3.4375 2.40625C3.4375 2.97412 2.9755 3.4375 2.40625 3.4375Z" fill="#0F1419"/>
</g>
</svg>
